<?xml version="1.0" encoding="utf-8"?>
<!-- Generator: Adobe Illustrator 21.0.0, SVG Export Plug-In . SVG Version: 6.00 Build 0)  -->
<svg version="1.1" id="Camada_1" xmlns="http://www.w3.org/2000/svg" xmlns:xlink="http://www.w3.org/1999/xlink" x="0px" y="0px"
	 viewBox="0 0 67 24" style="enable-background:new 0 0 67 24;" xml:space="preserve">
<style type="text/css">
	.st0{fill:#FFFFFF;}
</style>
<title>Logo</title>
<desc>Created with Sketch.</desc>
<g>
	<g>
		<g>
			<path class="st0" d="M51.7,19.8c-0.7,0.7-1.5,1-2.4,1c-0.9,0-1.7-0.3-2.4-1c-0.7-0.7-1-1.5-1-2.4c0-1,0.4-1.8,1-2.5
				c0.7-0.7,1.5-1,2.4-1c1,0,1.8,0.3,2.5,1c0.6,0.7,1,1.5,1,2.5C52.7,18.4,52.4,19.2,51.7,19.8 M53.9,12.8c-1.3-1.3-2.9-1.9-4.6-1.9
				c-1.8,0-3.3,0.6-4.6,1.9c-1.3,1.3-1.9,2.9-1.9,4.7c0,1.8,0.6,3.4,1.9,4.6c1.3,1.3,2.8,1.9,4.6,1.9s3.3-0.7,4.6-2
				c1.3-1.3,1.9-2.8,1.9-4.6S55.2,14,53.9,12.8"/>
			<path class="st0" d="M8.1,7.6c-2.3,0-4.1,0.7-5.7,2.4C0.8,11.6,0,13.5,0,15.7c0,2.2,0.8,4.2,2.4,5.8c1.6,1.6,3.4,2.4,5.7,2.4
				c1.8,0,3.5-0.5,4.9-1.7c1.4-1.1,2.4-2.6,2.8-4.3h-3.3c-0.4,0.8-1,1.5-1.8,2.1c-0.8,0.5-1.7,0.8-2.7,0.8c-1.4,0-2.6-0.5-3.5-1.5
				c-1-1-1.5-2.2-1.5-3.5c0-1.4,0.5-2.6,1.5-3.6c1-1,2.1-1.5,3.5-1.5c1,0,1.8,0.3,2.7,0.8c0.8,0.5,1.4,1.2,1.8,2.1h3.3
				c-0.5-1.8-1.4-3.2-2.8-4.3C11.6,8.1,9.9,7.5,8.1,7.6"/>
			<path class="st0" d="M29.3,17.9l0.6-0.3v1.3c0,1.1-0.3,1.8-0.9,2.3c-0.6,0.4-1.2,0.6-2,0.6c-0.5,0-0.8-0.1-1.1-0.4
				c-0.3-0.3-0.5-0.7-0.5-1.2c0-0.6,0.2-1.1,0.8-1.4c0.3-0.2,0.8-0.3,1.5-0.4L29.3,17.9L29.3,17.9z M28,10.8c-2.1,0-3.6,0.5-4.4,1.7
				c-0.5,0.7-0.8,1.6-0.9,2.7h3.1c0.1-0.6,0.2-0.9,0.5-1.1c0.3-0.4,0.9-0.6,1.7-0.6c0.7,0,1.2,0.1,1.5,0.3c0.4,0.2,0.5,0.5,0.5,1.1
				c0,0.4-0.2,0.7-0.7,0.9l-2.4,0.4c-1.1,0.1-2,0.4-2.7,0.8c-1.2,0.7-1.8,1.8-1.7,3.4c0,1.1,0.3,2,1,2.7c0.6,0.5,1.5,0.8,2.6,0.9
				c1.7,0,3.1-0.4,4-1.3v1.3h3.1v-9.2c0-1.5-0.5-2.6-1.6-3.1C30.5,11,29.3,10.8,28,10.8L28,10.8z"/>
			<path class="st0" d="M17.4,23.9h3.1V7.6h-3.1V23.9z"/>
			<path class="st0" d="M40.5,11.2c-0.8,0.3-1.6,0.9-2.2,1.8v-1.6l-3,0v12.5h3.1v-6c0-1,0.1-1.8,0.4-2.2c0.2-0.5,0.6-0.9,1.1-1.2
				c0.5-0.4,1.1-0.6,1.7-0.6l1,0.1l0-3.2l-0.8,0.1L40.5,11.2"/>
			<path class="st0" d="M56.4,11.3l7.6-7.6l-2-2l-7.5,7.6L56.4,11.3"/>
			<path class="st0" d="M48.3,8.3h2.8V0.2h-2.8V8.3z"/>
			<path class="st0" d="M57.8,17.2h8.3v-2.8h-8.3V17.2z"/>
		</g>
	</g>
</g>
</svg>
