<svg xmlns="http://www.w3.org/2000/svg" width="154" height="24">
    <title>Logo</title>
    <desc>Created with Sketch.</desc>
    <g fill="none">
        <g>
            <g>
                <path fill="#ffffff" d="M78.83 22.24C77.7 23.4 76.3 24 74.6 24c-1.57 0-2.85-.45-3.83-1.34-1.28-1.16-1.92-2.92-1.92-5.28 0-2.36.64-4.12 1.92-5.26.98-.9 2.26-1.34 3.82-1.34 1.7 0 3.13.58 4.23 1.74l-2.16 2.18c-.63-.68-1.3-1-2.07-1-.75 0-1.36.27-1.83.85-.46.58-.7 1.52-.7 2.83 0 1.32.24 2.27.7 2.85.47.58 1.08.87 1.83.87.76 0 1.44-.34 2.07-1.02l2.16 2.16"/>
                <path fill="#ffffff" d="M87.45 17.38c0-1.6-.24-2.63-.73-3.12-.37-.38-.87-.57-1.48-.57-.6 0-1.1.18-1.47.56-.48.5-.73 1.53-.73 3.12 0 1.6.25 2.65.73 3.15.38.38.86.57 1.47.57.6 0 1.1-.2 1.48-.57.5-.5.73-1.55.73-3.15zm3.23 0c0 1.24-.1 2.22-.3 2.95-.2.8-.6 1.5-1.15 2.08-1 1.07-2.33 1.6-4 1.6-1.64 0-2.96-.53-3.96-1.6-.56-.57-.95-1.26-1.16-2.07-.2-.73-.3-1.7-.3-2.95 0-2.3.5-4 1.5-5.03.98-1.04 2.3-1.57 3.94-1.57 1.66 0 2.98.53 3.96 1.57 1 1.04 1.48 2.72 1.48 5.03z"/>
                <path fill="#ffffff" d="M103.45 23.85h-3.23v-7.8c0-.82-.23-1.43-.7-1.84-.36-.34-.84-.5-1.4-.5-.6 0-1.08.16-1.45.5-.46.42-.7 1.03-.7 1.84v7.8h-3.2v-12.9h3.14v1.18c.85-.9 1.9-1.34 3.2-1.34 1.28 0 2.3.4 3.04 1.15.87.87 1.3 2.1 1.3 3.66v8.25"/>
                <path fill="#ffffff" d="M111.73 23.85h-1.75c-1.22 0-2.16-.4-2.83-1.17-.6-.67-.9-1.52-.9-2.52v-6.4h-1.35V11.3h1.36V7.5h3.23v3.8h2.23v2.46h-2.24v6.2c0 .77.35 1.16 1.08 1.16h1.15v2.73"/>
                <path fill="#ffffff" d="M123.04 12l-2.4 2.45c-.52-.5-1.1-.76-1.7-.76-.56 0-1.02.18-1.42.56-.44.44-.66 1.05-.66 1.8v7.8h-3.2V10.92h3.12v1.24c.77-.92 1.85-1.4 3.23-1.4 1.23 0 2.24.42 3.04 1.23"/>
                <path fill="#ffffff" d="M131 17.38c0-1.6-.24-2.63-.73-3.12-.37-.38-.87-.57-1.5-.57-.6 0-1.07.18-1.45.56-.5.5-.73 1.53-.73 3.12 0 1.6.23 2.65.72 3.15.38.38.86.57 1.46.57.62 0 1.12-.2 1.5-.57.48-.5.72-1.55.72-3.15zm3.23 0c0 1.24-.1 2.22-.3 2.95-.2.8-.6 1.5-1.15 2.08-1 1.07-2.34 1.6-4 1.6-1.64 0-2.96-.53-3.96-1.6-.56-.57-.95-1.26-1.16-2.07-.2-.73-.3-1.7-.3-2.95 0-2.3.5-4 1.48-5.03 1-1.04 2.3-1.57 3.94-1.57 1.66 0 3 .53 3.97 1.57 1 1.04 1.48 2.72 1.48 5.03z"/>
                <path fill="#ffffff" d="M141.77 23.85h-1.82c-1.23 0-2.2-.4-2.86-1.17-.6-.67-.9-1.52-.9-2.52V6.2h3.23v13.76c0 .77.37 1.16 1.12 1.16h1.22v2.73"/>
                <path fill="#ffffff" d="M150.77 16.2c-.02-.54-.12-1-.3-1.4-.4-.9-1.1-1.34-2.14-1.34s-1.75.45-2.15 1.34c-.18.4-.28.86-.3 1.4h4.9zm3.15 2.2h-8.03c0 .86.24 1.55.74 2.08s1.2.8 2.06.8c1.13 0 2.1-.4 2.9-1.22l1.95 1.9c-.7.72-1.4 1.22-2.07 1.52-.77.35-1.7.52-2.8.52-3.97 0-5.95-2.2-5.95-6.62 0-2.07.52-3.7 1.56-4.88 1-1.15 2.34-1.72 4.03-1.72 1.74 0 3.12.6 4.14 1.76.97 1.13 1.45 2.6 1.45 4.42v1.44z"/>
                <path fill="#ffffff" d="M51.74 19.84c-.66.7-1.47 1.03-2.44 1.03-.93 0-1.74-.33-2.4-1.03-.67-.7-1.03-1.5-1.03-2.43 0-1 .36-1.8 1.02-2.46.66-.7 1.47-1.03 2.4-1 .97-.03 1.78.3 2.47 1 .63.66.96 1.47 1 2.47-.04.94-.37 1.75-1.03 2.44m2.2-7.1c-1.3-1.3-2.86-1.93-4.64-1.93-1.77 0-3.3.64-4.58 1.94-1.3 1.3-1.92 2.86-1.92 4.67 0 1.8.63 3.38 1.92 4.64C46 23.34 47.52 24 49.3 24c1.78 0 3.34-.66 4.64-1.96 1.26-1.26 1.9-2.83 1.9-4.63 0-1.8-.64-3.37-1.9-4.66"/>
                <path fill="#ffffff" d="M8.07 7.6c-2.26-.04-4.12.74-5.7 2.37C.78 11.57 0 13.47 0 15.72c0 2.23.78 4.2 2.38 5.78 1.57 1.57 3.43 2.35 5.7 2.35 1.8 0 3.46-.54 4.9-1.66 1.42-1.15 2.35-2.57 2.83-4.3h-3.27c-.42.83-1.03 1.52-1.78 2.06-.84.52-1.72.8-2.68.8-1.38 0-2.56-.52-3.52-1.5-1-.98-1.48-2.16-1.45-3.54-.03-1.4.46-2.56 1.45-3.56.96-.96 2.14-1.47 3.52-1.47.96 0 1.84.26 2.68.8.75.52 1.36 1.24 1.78 2.08h3.28c-.47-1.75-1.4-3.2-2.82-4.3-1.44-1.15-3.1-1.72-4.9-1.7"/>
                <path fill="#ffffff" d="M29.27 17.86l.6-.33v1.26c0 1.08-.3 1.83-.87 2.25-.6.42-1.23.63-1.95.63-.46 0-.82-.12-1.12-.36-.3-.27-.45-.66-.45-1.23 0-.65.24-1.1.75-1.43.3-.18.82-.33 1.48-.42l1.57-.4zm-1.32-7.08c-2.1-.03-3.6.54-4.43 1.66-.54.7-.8 1.6-.9 2.74h3.13c.06-.55.24-.9.45-1.15.33-.42.88-.63 1.66-.6.66-.03 1.17.1 1.53.3.35.18.5.54.54 1.06 0 .4-.24.74-.73.95l-2.4.4c-1.1.14-2 .4-2.7.8-1.18.7-1.75 1.8-1.72 3.4-.03 1.12.33 2.03 1.05 2.7.63.53 1.5.83 2.56.86 1.7-.02 3.06-.44 4.03-1.28v1.3h3.13V14.7c0-1.5-.54-2.57-1.57-3.1-1.1-.58-2.3-.85-3.65-.82z"/>
                <path fill="#ffffff" d="M17.4 23.9h3.14V7.6H17.4z"/>
                <path fill="#ffffff" d="M40.48 11.23c-.85.33-1.6.9-2.23 1.78v-1.6l-2.98-.02V23.9h3.1v-5.98c0-1.03.12-1.75.4-2.2.2-.48.6-.87 1.07-1.2.55-.37 1.12-.55 1.72-.55l.97.06-.04-3.2-.82.07-1.2.33"/>
                <path fill="#ffffff" d="M56.38 11.3l7.56-7.57-2-2L54.4 9.3l1.98 2"/>
                <path fill="#ffffff" d="M48.28 8.28h2.8V.18h-2.8z"/>
                <path fill="#ffffff" d="M57.76 17.23h8.3v-2.8h-8.3z"/>
            </g>
        </g>
    </g>
</svg>